<mxfile host="app.diagrams.net" agent="Mozilla/5.0 (Windows NT 10.0; Win64; x64) AppleWebKit/537.36 (KHTML, like Gecko) Chrome/140.0.0.0 Safari/537.36" version="28.2.2">
  <diagram name="ページ1" id="iimMsUw6dc9LekdGPno6">
    <mxGraphModel dx="1426" dy="777" grid="1" gridSize="10" guides="1" tooltips="1" connect="1" arrows="1" fold="1" page="1" pageScale="1" pageWidth="827" pageHeight="1169" math="0" shadow="0">
      <root>
        <mxCell id="0" />
        <mxCell id="1" parent="0" />
        <mxCell id="_MLisNQlmnfJQsGHHcBS-1" value="Actor" style="shape=umlActor;verticalLabelPosition=bottom;verticalAlign=top;html=1;outlineConnect=0;" vertex="1" parent="1">
          <mxGeometry x="80" y="160" width="40" height="80" as="geometry" />
        </mxCell>
        <mxCell id="_MLisNQlmnfJQsGHHcBS-2" value="" style="endArrow=classic;html=1;rounded=0;exitX=1;exitY=0.3333333333333333;exitDx=0;exitDy=0;exitPerimeter=0;entryX=-0.01;entryY=0.325;entryDx=0;entryDy=0;entryPerimeter=0;" edge="1" parent="1" source="_MLisNQlmnfJQsGHHcBS-1" target="_MLisNQlmnfJQsGHHcBS-3">
          <mxGeometry width="50" height="50" relative="1" as="geometry">
            <mxPoint x="140" y="210" as="sourcePoint" />
            <mxPoint x="320" y="200" as="targetPoint" />
            <Array as="points">
              <mxPoint x="210" y="186" />
            </Array>
          </mxGeometry>
        </mxCell>
        <mxCell id="_MLisNQlmnfJQsGHHcBS-3" value="登録画面" style="shape=umlBoundary;whiteSpace=wrap;html=1;" vertex="1" parent="1">
          <mxGeometry x="320" y="160" width="100" height="80" as="geometry" />
        </mxCell>
        <mxCell id="_MLisNQlmnfJQsGHHcBS-5" value="登録処理" style="ellipse;shape=umlControl;whiteSpace=wrap;html=1;" vertex="1" parent="1">
          <mxGeometry x="600" y="160" width="70" height="80" as="geometry" />
        </mxCell>
        <mxCell id="_MLisNQlmnfJQsGHHcBS-6" value="" style="endArrow=classic;html=1;rounded=0;entryX=0.5;entryY=0.5;entryDx=0;entryDy=0;entryPerimeter=0;exitX=-0.04;exitY=0.488;exitDx=0;exitDy=0;exitPerimeter=0;" edge="1" parent="1" source="_MLisNQlmnfJQsGHHcBS-3" target="_MLisNQlmnfJQsGHHcBS-1">
          <mxGeometry width="50" height="50" relative="1" as="geometry">
            <mxPoint x="300" y="210" as="sourcePoint" />
            <mxPoint x="379" y="310" as="targetPoint" />
            <Array as="points" />
          </mxGeometry>
        </mxCell>
        <mxCell id="_MLisNQlmnfJQsGHHcBS-9" value="" style="endArrow=classic;html=1;rounded=0;exitX=0.571;exitY=1;exitDx=0;exitDy=0;exitPerimeter=0;entryX=0.5;entryY=0;entryDx=0;entryDy=0;" edge="1" parent="1" source="_MLisNQlmnfJQsGHHcBS-5" target="_MLisNQlmnfJQsGHHcBS-10">
          <mxGeometry width="50" height="50" relative="1" as="geometry">
            <mxPoint x="726" y="390" as="sourcePoint" />
            <mxPoint x="639" y="360" as="targetPoint" />
            <Array as="points" />
          </mxGeometry>
        </mxCell>
        <mxCell id="_MLisNQlmnfJQsGHHcBS-10" value="訪問者情報" style="ellipse;shape=umlEntity;whiteSpace=wrap;html=1;" vertex="1" parent="1">
          <mxGeometry x="600" y="400" width="80" height="80" as="geometry" />
        </mxCell>
        <mxCell id="_MLisNQlmnfJQsGHHcBS-12" value="認証情報" style="ellipse;shape=umlEntity;whiteSpace=wrap;html=1;" vertex="1" parent="1">
          <mxGeometry x="600" y="560" width="80" height="80" as="geometry" />
        </mxCell>
        <mxCell id="_MLisNQlmnfJQsGHHcBS-13" value="" style="endArrow=classic;html=1;rounded=0;exitX=0.014;exitY=0.788;exitDx=0;exitDy=0;exitPerimeter=0;entryX=0;entryY=0.5;entryDx=0;entryDy=0;" edge="1" parent="1" source="_MLisNQlmnfJQsGHHcBS-5" target="_MLisNQlmnfJQsGHHcBS-12">
          <mxGeometry width="50" height="50" relative="1" as="geometry">
            <mxPoint x="410" y="370" as="sourcePoint" />
            <mxPoint x="590" y="370" as="targetPoint" />
            <Array as="points">
              <mxPoint x="440" y="400" />
            </Array>
          </mxGeometry>
        </mxCell>
        <mxCell id="_MLisNQlmnfJQsGHHcBS-14" value="" style="endArrow=classic;html=1;rounded=0;exitX=0.97;exitY=0.263;exitDx=0;exitDy=0;exitPerimeter=0;entryX=0.271;entryY=0.238;entryDx=0;entryDy=0;entryPerimeter=0;" edge="1" parent="1" source="_MLisNQlmnfJQsGHHcBS-3" target="_MLisNQlmnfJQsGHHcBS-5">
          <mxGeometry width="50" height="50" relative="1" as="geometry">
            <mxPoint x="414" y="181" as="sourcePoint" />
            <mxPoint x="570" y="180" as="targetPoint" />
            <Array as="points">
              <mxPoint x="504" y="180" />
            </Array>
          </mxGeometry>
        </mxCell>
        <mxCell id="_MLisNQlmnfJQsGHHcBS-16" value="" style="endArrow=classic;html=1;rounded=0;entryX=1;entryY=0.513;entryDx=0;entryDy=0;entryPerimeter=0;exitX=0.029;exitY=0.488;exitDx=0;exitDy=0;exitPerimeter=0;" edge="1" parent="1" source="_MLisNQlmnfJQsGHHcBS-5" target="_MLisNQlmnfJQsGHHcBS-3">
          <mxGeometry width="50" height="50" relative="1" as="geometry">
            <mxPoint x="570" y="200" as="sourcePoint" />
            <mxPoint x="460" y="201" as="targetPoint" />
            <Array as="points" />
          </mxGeometry>
        </mxCell>
        <mxCell id="_MLisNQlmnfJQsGHHcBS-17" value="名前・学校名などの保存" style="text;html=1;align=center;verticalAlign=middle;resizable=0;points=[];autosize=1;strokeColor=none;fillColor=none;" vertex="1" parent="1">
          <mxGeometry x="640" y="278" width="160" height="30" as="geometry" />
        </mxCell>
        <mxCell id="_MLisNQlmnfJQsGHHcBS-18" value="ユーザID、パスワードの保存" style="text;html=1;align=center;verticalAlign=middle;resizable=0;points=[];autosize=1;strokeColor=none;fillColor=none;" vertex="1" parent="1">
          <mxGeometry x="260" y="390" width="180" height="30" as="geometry" />
        </mxCell>
        <mxCell id="_MLisNQlmnfJQsGHHcBS-19" value="登録要求" style="text;html=1;align=center;verticalAlign=middle;resizable=0;points=[];autosize=1;strokeColor=none;fillColor=none;" vertex="1" parent="1">
          <mxGeometry x="480" y="150" width="70" height="30" as="geometry" />
        </mxCell>
        <mxCell id="_MLisNQlmnfJQsGHHcBS-20" value="登録結果を返す" style="text;html=1;align=center;verticalAlign=middle;resizable=0;points=[];autosize=1;strokeColor=none;fillColor=none;" vertex="1" parent="1">
          <mxGeometry x="460" y="200" width="110" height="30" as="geometry" />
        </mxCell>
        <mxCell id="_MLisNQlmnfJQsGHHcBS-21" value="ユーザ情報を入力" style="text;html=1;align=center;verticalAlign=middle;resizable=0;points=[];autosize=1;strokeColor=none;fillColor=none;" vertex="1" parent="1">
          <mxGeometry x="140" y="160" width="120" height="30" as="geometry" />
        </mxCell>
        <mxCell id="_MLisNQlmnfJQsGHHcBS-22" value="完了メッセージ送信" style="text;html=1;align=center;verticalAlign=middle;resizable=0;points=[];autosize=1;strokeColor=none;fillColor=none;" vertex="1" parent="1">
          <mxGeometry x="135" y="198" width="130" height="30" as="geometry" />
        </mxCell>
      </root>
    </mxGraphModel>
  </diagram>
</mxfile>
